<?xml version="1.0" encoding="UTF-8" standalone="no"?>
<svg width="9px" height="17px" viewBox="0 0 9 17" version="1.1" xmlns="http://www.w3.org/2000/svg" xmlns:xlink="http://www.w3.org/1999/xlink">
    <!-- Generator: Sketch 45.1 (43504) - http://www.bohemiancoding.com/sketch -->
    <title>sound-on</title>
    <desc>Created with Sketch.</desc>
    <defs></defs>
    <g id="Symbols" stroke="none" stroke-width="1" fill="none" fill-rule="evenodd">
        <g id="music/default" transform="translate(-17.000000, -14.000000)">
            <rect id="Rectangle-3-Copy" fill-opacity="0.333276721" fill="#000000" x="0" y="0" width="43" height="43" rx="2"></rect>
            <path d="M26,15.078125 L26,18.21875 C26,18.4375011 25.9062509,18.5156253 25.71875,18.453125 L22.296875,17.84375 L22.296875,26.84375 C22.296875,27.4062528 22.2812502,27.835936 22.25,28.1328125 C22.2187498,28.429689 22.1406256,28.8124977 22.015625,29.28125 C21.8906244,29.7500023 21.6484393,30.0937489 21.2890625,30.3125 C20.9296857,30.5312511 20.4687528,30.6562498 19.90625,30.6875 C17.9687403,30.7812505 17,30.1406319 17,28.765625 C17,27.5468689 17.796867,26.9062503 19.390625,26.84375 C20.0781284,26.8124998 20.7812464,26.796875 21.5,26.796875 L21.5,14 L25.71875,14.890625 L25.8125,14.9375 C25.8750003,14.9375 25.9374997,14.9843745 26,15.078125 Z" id="sound-on" fill-opacity="0.5" fill="#FFFFFF"></path>
        </g>
    </g>
</svg>