<?xml version="1.0" encoding="UTF-8" standalone="no"?>
<svg width="17px" height="13px" viewBox="0 0 17 13" version="1.1" xmlns="http://www.w3.org/2000/svg" xmlns:xlink="http://www.w3.org/1999/xlink">
    <!-- Generator: Sketch 45.1 (43504) - http://www.bohemiancoding.com/sketch -->
    <title>exit</title>
    <desc>Created with Sketch.</desc>
    <defs></defs>
    <g id="Symbols" stroke="none" stroke-width="1" fill="none" fill-rule="evenodd">
        <g id="exit/default" transform="translate(-13.000000, -15.000000)">
            <rect id="Rectangle-3-Copy-2" fill-opacity="0.333276721" fill="#000000" x="0" y="0" width="43" height="43" rx="2"></rect>
            <path d="M18.109375,15.421875 C18.3906264,15.1406236 18.734373,15 19.140625,15 C19.546877,15 19.8906236,15.1406236 20.171875,15.421875 C20.4531264,15.7031264 20.59375,16.0624978 20.59375,16.5 C20.59375,16.9375022 20.4531264,17.2968736 20.171875,17.578125 L17.875,19.921875 L28.046875,19.921875 C28.453127,19.921875 28.7968736,20.070311 29.078125,20.3671875 C29.3593764,20.664064 29.5,21.015623 29.5,21.421875 C29.5,21.828127 29.3593764,22.179686 29.078125,22.4765625 C28.7968736,22.773439 28.453127,22.921875 28.046875,22.921875 L17.875,22.921875 L20.125,25.265625 C20.4062514,25.5468764 20.546875,25.9062478 20.546875,26.34375 C20.546875,26.7812522 20.4062514,27.1406236 20.125,27.421875 C19.8437486,27.7031264 19.5078145,27.84375 19.1171875,27.84375 C18.7265605,27.84375 18.3906264,27.7031264 18.109375,27.421875 L13.421875,22.453125 C13.1406236,22.1718736 13,21.828127 13,21.421875 C13,20.9843728 13.1406236,20.6250014 13.421875,20.34375 L18.109375,15.421875 Z" id="exit" fill-opacity="0.5" fill="#FFFFFF"></path>
        </g>
    </g>
</svg>