<?xml version="1.0" encoding="UTF-8"?>
<svg width="181px" height="181px" viewBox="0 0 181 181" version="1.1" xmlns="http://www.w3.org/2000/svg" xmlns:xlink="http://www.w3.org/1999/xlink">
    <!-- Generator: Sketch 45.1 (43504) - http://www.bohemiancoding.com/sketch -->
    <title></title>
    <desc>Created with Sketch.</desc>
    <defs></defs>
    <g id="Page-1" stroke="none" stroke-width="1" fill="none" fill-rule="evenodd">
        <g id="ocqd-6" transform="translate(-97.000000, -179.000000)" fill="#FFFFFF">
            <path d="M183.190476,351.380952 L183.190476,308.285714 C176.007901,308.285714 169.274337,306.939002 162.989583,304.245536 C156.70483,301.55207 151.228198,297.871055 146.559524,293.202381 C141.89085,288.533707 138.209835,283.057075 135.516369,276.772321 C132.822903,270.487568 131.47619,263.754004 131.47619,256.571429 C123.934486,253.33927 117.919169,247.503514 113.43006,239.063988 C108.94095,230.624462 105.439497,221.915719 102.925595,212.9375 C100.411694,203.959281 98.7956385,196.058566 98.077381,189.235119 L97,179 L278,179 L276.922619,189.235119 C276.204361,196.058566 274.588306,203.959281 272.074405,212.9375 C269.560503,221.915719 266.05905,230.624462 261.56994,239.063988 C257.080831,247.503514 251.065514,253.33927 243.52381,256.571429 C243.52381,263.754004 242.177097,270.487568 239.483631,276.772321 C236.790165,283.057075 233.10915,288.533707 228.440476,293.202381 C223.771802,297.871055 218.29517,301.55207 212.010417,304.245536 C205.725663,306.939002 198.992099,308.285714 191.809524,308.285714 L191.809524,351.380952 L226.285714,351.380952 L226.285714,360 L148.714286,360 L148.714286,351.380952 L183.190476,351.380952 Z M140,188 L140,256.923077 C140,262.666695 141.169496,268.230742 143.508523,273.615385 C145.84755,279.000027 148.906231,283.576904 152.684659,287.346154 C156.463087,291.115403 160.961148,294.166655 166.178977,296.5 C171.396806,298.833345 177.064363,300 183.181818,300 L191.818182,300 C197.935637,300 203.603194,298.833345 208.821023,296.5 C214.038852,294.166655 218.536913,291.115403 222.315341,287.346154 C226.093769,283.576904 229.15245,279.08977 231.491477,273.884615 C233.830504,268.679461 235,263.025672 235,256.923077 L235,188 L140,188 Z M132,188 L107,188 L108.086957,195.240909 C108.811598,200.068206 110.079701,205.699968 111.891304,212.136364 C113.702908,218.572759 116.239114,225.098452 119.5,231.713636 C122.760886,238.328821 126.927511,243.424225 132,247 L132,188 Z M244,188 L244,247 C249.072489,243.424225 253.239114,238.328821 256.5,231.713636 C259.760886,225.098452 262.297092,218.572759 264.108696,212.136364 C265.920299,205.699968 267.188402,200.068206 267.913043,195.240909 L269,188 L244,188 Z" id=""></path>
        </g>
    </g>
</svg>