<?xml version="1.0" encoding="UTF-8" standalone="no"?>
<svg width="375px" height="165px" viewBox="0 0 375 165" version="1.1" xmlns="http://www.w3.org/2000/svg" xmlns:xlink="http://www.w3.org/1999/xlink">
    <!-- Generator: Sketch 45.1 (43504) - http://www.bohemiancoding.com/sketch -->
    <title>ocqd-1</title>
    <desc>Created with Sketch.</desc>
    <defs></defs>
    <g id="Page-1" stroke="none" stroke-width="1" fill="none" fill-rule="evenodd">
        <g id="ocqd-1" transform="translate(0.000000, -66.000000)">
            <rect id="Rectangle" fill="#771CFF" x="0" y="0" width="375" height="667"></rect>
            <g id="logo" transform="translate(29.000000, 65.000000)">
                <path d="M45.476,42 C56.3987213,42 64.2493094,44.5599744 69.028,49.68 C70.9906765,51.813344 72.3986624,54.3946515 73.252,57.424 C74.1053376,60.4533485 74.532,64.101312 74.532,68.368 L74.532,102.16 C74.532,106.597356 74.1053376,110.351985 73.252,113.424 C72.3986624,116.496015 70.9906765,119.098656 69.028,121.232 C68.2599962,121.91467 67.4920038,122.575997 66.724,123.216 C65.9559962,123.856003 65.1026714,124.431997 64.164,124.944 C63.1399949,125.62667 62.0306726,126.159998 60.836,126.544 C59.6413274,126.928002 58.4040064,127.290665 57.124,127.632 C57.0386662,127.632 56.3986726,127.802665 55.204,128.144 C54.0093274,128.485335 52.4733427,128.890664 50.596,129.36 C48.7186573,129.829336 46.6920109,130.362664 44.516,130.96 C42.3399891,131.557336 40.2706765,132.090664 38.308,132.56 C36.3453235,133.029336 34.660007,133.455998 33.252,133.84 C31.843993,134.224002 31.0120013,134.458666 30.756,134.544 C30.1586637,134.714668 29.6253357,134.821333 29.156,134.864 C28.6866643,134.906667 28.1106701,135.013332 27.428,135.184 C26.1479936,135.354668 24.7826739,135.503999 23.332,135.632 C21.8813261,135.760001 20.3453414,135.824 18.724,135.824 C13.0066381,135.824 8.24935232,135.184006 4.452,133.904 C0.65464768,132.623994 -2.48132096,130.704013 -4.956,128.144 C-6.83334272,126.010656 -8.26266176,123.408015 -9.244,120.336 C-10.2253382,117.263985 -10.716,113.509356 -10.716,109.072 L-10.716,75.28 C-10.716,66.8319578 -8.7960192,60.5600205 -4.956,56.464 C-2.3959872,53.5626522 1.27330944,51.5146726 6.052,50.32 C6.13733376,50.32 6.79866048,50.149335 8.036,49.808 C9.27333952,49.466665 10.8306573,49.0613357 12.708,48.592 C14.5853427,48.1226643 16.6333222,47.5893363 18.852,46.992 C21.0706778,46.3946637 23.1613235,45.8613357 25.124,45.392 C27.0866765,44.9226643 28.771993,44.4960019 30.18,44.112 C31.588007,43.7279981 32.4199987,43.4933338 32.676,43.408 C34.5533427,42.9813312 36.5373229,42.6400013 38.628,42.384 C40.7186771,42.1279987 43.001321,42 45.476,42 Z M124.836,42 C129.358689,42 133.411982,42.4693286 136.996,43.408 C140.580018,44.3466714 143.630654,45.8399898 146.148,47.888 C148.665346,49.9360102 150.585327,52.6453165 151.908,56.016 C153.230673,59.3866835 153.892,63.5039757 153.892,68.368 L153.892,71.184 C153.892,71.6960026 153.593336,72.0373325 152.996,72.208 L151.012,72.72 C149.689327,73.061335 148.06801,73.4666643 146.148,73.936 C144.22799,74.4053357 142.158678,74.9386637 139.94,75.536 C137.721322,76.1333363 135.65201,76.6879974 133.732,77.2 C131.81199,77.7120026 130.190673,78.138665 128.868,78.48 L126.884,78.992 C126.713332,79.0773338 126.457335,79.12 126.116,79.12 L112.548,79.12 L112.548,99.472 L112.996,99.344 C113.294668,99.2586662 114.211992,99.0240019 115.748,98.64 C117.284008,98.2559981 119.673317,97.6373376 122.916,96.784 C126.158683,95.9306624 130.809303,94.7360077 136.868,93.2 L137.636,93.008 C137.806668,92.9653331 137.977332,92.944 138.148,92.944 L152.868,92.944 C153.55067,92.944 153.892,93.2426637 153.892,93.84 L153.892,102.16 C153.892,109.41337 152.441348,115.109313 149.54,119.248 C146.638652,123.386687 142.286696,126.181326 136.484,127.632 L134.628,128.144 C133.39066,128.485335 131.833343,128.890664 129.956,129.36 L123.812,130.896 C121.593322,131.450669 119.502676,131.962664 117.54,132.432 C115.577324,132.901336 113.892007,133.306665 112.484,133.648 C111.075993,133.989335 110.244001,134.202666 109.988,134.288 C106.489316,135.312005 102.521356,135.824 98.084,135.824 C93.6466445,135.824 89.6146848,135.354671 85.988,134.416 C82.3613152,133.477329 79.2680128,131.962677 76.708,129.872 C74.1479872,127.781323 72.164007,125.02935 70.756,121.616 C69.347993,118.20265 68.644,114.021358 68.644,109.072 L68.644,75.28 C68.644,67.9412966 70.1373184,62.2880198 73.124,58.32 C76.1106816,54.3519802 80.4199718,51.6426739 86.052,50.192 C86.1373338,50.192 86.7986605,50.021335 88.036,49.68 C89.2733395,49.338665 90.8306573,48.9333357 92.708,48.464 C94.5853427,47.9946643 96.6333222,47.4613363 98.852,46.864 C101.070678,46.2666637 103.161324,45.7333357 105.124,45.264 C107.086676,44.7946643 108.771993,44.3680019 110.18,43.984 C111.588007,43.5999981 112.419999,43.3653338 112.676,43.28 C114.382675,42.8533312 116.281323,42.5333344 118.372,42.32 C120.462677,42.1066656 122.617322,42 124.836,42 Z M202.404,42 C206.841356,42 210.851982,42.4693286 214.436,43.408 C218.020018,44.3466714 221.091987,45.8613229 223.652,47.952 C226.212013,50.0426771 228.17466,52.7519834 229.54,56.08 C230.90534,59.4080166 231.588,63.5039757 231.588,68.368 L231.588,102.16 C231.588,108.986701 230.201347,114.554645 227.428,118.864 C224.654653,123.173355 219.854701,126.181325 213.028,127.888 L210.98,128.4 L210.98,136.208 C210.98,136.464001 210.873334,136.719999 210.66,136.976 C210.446666,137.232001 210.169335,137.36 209.828,137.36 L207.844,137.872 C206.521327,138.213335 204.90001,138.639997 202.98,139.152 C201.05999,139.664003 198.990678,140.218664 196.772,140.816 C194.553322,141.413336 192.48401,141.967997 190.564,142.48 C188.64399,142.992003 187.022673,143.418665 185.7,143.76 L183.716,144.272 C183.545332,144.272 183.396001,144.293333 183.268,144.336 C183.139999,144.378667 183.033334,144.4 182.948,144.4 L168.356,144.4 C167.502662,144.4 167.076,143.973338 167.076,143.12 L167.076,135.312 C159.82263,133.94666 154.55335,131.109355 151.268,126.8 C147.98265,122.490645 146.34,116.581371 146.34,109.072 L146.34,75.28 C146.34,67.9412966 147.811985,62.2666867 150.756,58.256 C153.700015,54.2453133 158.073304,51.5573402 163.876,50.192 L165.732,49.68 C166.96934,49.338665 168.526657,48.9333357 170.404,48.464 C172.281343,47.9946643 174.329322,47.4613363 176.548,46.864 C178.766678,46.2666637 180.857324,45.7333357 182.82,45.264 C184.782676,44.7946643 186.467993,44.3680019 187.876,43.984 C189.284007,43.5999981 190.158665,43.3653338 190.5,43.28 C193.828017,42.4266624 197.795977,42 202.404,42 Z M286.884,43.152 C295.588044,43.152 302.115978,45.5413094 306.468,50.32 C310.308019,54.586688 312.228,60.6026278 312.228,68.368 L312.228,102.288 C312.228,108.688032 310.777348,113.978646 307.876,118.16 C304.974652,122.341354 300.750694,125.157326 295.204,126.608 C295.118666,126.608 294.45734,126.757332 293.22,127.056 C291.98266,127.354668 290.425343,127.759997 288.548,128.272 C286.670657,128.784003 284.622678,129.317331 282.404,129.872 C280.185322,130.426669 278.11601,130.959997 276.196,131.472 C274.27599,131.984003 272.612007,132.410665 271.204,132.752 C269.795993,133.093335 268.964001,133.306666 268.708,133.392 C266.147987,134.160004 263.289349,134.544 260.132,134.544 L228.132,134.544 C227.44933,134.544 227.108,134.160004 227.108,133.392 L227.108,50.96 C227.108,50.5333312 227.363997,50.2346675 227.876,50.064 L254.116,43.28 C254.457335,43.1946662 254.755999,43.152 255.012,43.152 L286.884,43.152 Z" id="OCQD" fill-opacity="0.327219203" fill="#000000"></path>
                <path d="M63.012,43.792 L64.036,44.816 C64.6333363,45.4133363 65.294663,46.0533299 66.02,46.736 C66.745337,47.4186701 67.4066637,48.0586637 68.004,48.656 L69.028,49.68 C70.9906765,51.813344 72.3986624,54.3946515 73.252,57.424 C74.1053376,60.4533485 74.532,64.101312 74.532,68.368 L74.532,102.16 C74.532,106.597356 74.1053376,110.351985 73.252,113.424 C72.3986624,116.496015 70.9906765,119.098656 69.028,121.232 C66.553321,123.792013 63.3960192,125.711994 59.556,126.992 C55.7159808,128.272006 51.0226944,128.912 45.476,128.912 C41.3799795,128.912 37.6253504,128.528004 34.212,127.76 C29.0066406,126.565327 25.0386803,124.560014 22.308,121.744 L16.036,115.472 C12.2813146,111.119978 10.404,104.805375 10.404,96.528 L10.404,62.864 C10.404,54.5012915 12.3239808,48.186688 16.164,43.92 C18.638679,41.2746534 21.7959808,39.3546726 25.636,38.16 C29.4760192,36.9653274 34.2119718,36.368 39.844,36.368 C50.6813875,36.368 58.403977,38.8426419 63.012,43.792 Z M52.004,67.088 C52.004,65.6373261 51.8973344,64.3146726 51.684,63.12 C51.4706656,61.9253274 51.193335,60.8586714 50.852,59.92 C50.0839962,59.578665 49.2946707,59.3653338 48.484,59.28 C47.6733293,59.1946662 46.8840038,59.152 46.116,59.152 L44.452,59.152 C40.2706458,59.152 37.284009,60.3039885 35.492,62.608 C34.5533286,63.8880064 33.9346682,65.3386586 33.636,66.96 C33.3373318,68.5813414 33.188,70.5013222 33.188,72.72 L33.188,98.32 C33.188,101.221348 33.5293299,103.69599 34.212,105.744 C35.0653376,105.914668 35.8759962,106.063999 36.644,106.192 C37.4120038,106.320001 38.1799962,106.384 38.948,106.384 L40.484,106.384 C41.8493402,106.384 43.235993,106.192002 44.644,105.808 C46.052007,105.423998 47.289328,104.720005 48.356,103.696 C49.422672,102.671995 50.2973299,101.242676 50.98,99.408 C51.6626701,97.5733242 52.004,95.2480141 52.004,92.432 L52.004,67.088 Z M142.116,43.664 C143.48134,45.0293402 144.526663,46.0959962 145.252,46.864 C145.977337,47.6320038 146.68133,48.3573299 147.364,49.04 C149.582678,51.173344 151.225328,53.7973178 152.292,56.912 C153.358672,60.0266822 153.892,63.8453107 153.892,68.368 L153.892,71.184 C153.892,71.8666701 153.55067,72.208 152.868,72.208 L138.148,72.208 C137.891999,72.208 137.721334,72.1866669 137.636,72.144 L137.252,71.952 L131.748,66.32 C131.491999,66.2346662 131.364,65.9786688 131.364,65.552 L131.364,63.504 C131.364,62.1386598 131.193335,60.9440051 130.852,59.92 C130.083996,59.578665 129.230671,59.3653338 128.292,59.28 C127.353329,59.1946662 126.414671,59.152 125.476,59.152 L123.812,59.152 C119.71598,59.152 116.729343,60.389321 114.852,62.864 C113.315992,64.997344 112.548,68.2826445 112.548,72.72 L112.548,98.064 C112.548,101.136015 112.88933,103.525325 113.572,105.232 C114.425338,105.573335 115.235996,105.786666 116.004,105.872 C116.772004,105.957334 117.539996,106 118.308,106 L119.844,106 C124.025354,106 127.054657,104.762679 128.932,102.288 C130.638675,99.8986547 131.492,96.6133542 131.492,92.432 L131.492,88.464 C131.492,87.6959962 131.875996,87.312 132.644,87.312 L147.236,87.312 C147.577335,87.312 147.833332,87.3973325 148.004,87.568 L153.636,93.2 C153.806668,93.3706675 153.892,93.5839987 153.892,93.84 L153.892,102.16 C153.892,111.546714 151.438691,118.351979 146.532,122.576 C141.625309,126.800021 134.393381,128.912 124.836,128.912 C119.971976,128.912 115.577353,128.314673 111.652,127.12 C107.726647,125.925327 104.484013,124.048013 101.924,121.488 L96.548,116.112 C94.3293222,113.893322 92.6440058,111.205349 91.492,108.048 C90.3399942,104.890651 89.764,101.050689 89.764,96.528 L89.764,62.864 C89.764,53.3919526 92.2813082,46.6080205 97.316,42.512 C102.350692,38.4159795 109.646619,36.368 119.204,36.368 C124.238692,36.368 128.675981,36.9439942 132.516,38.096 C136.356019,39.2480058 139.555987,41.1039872 142.116,43.664 Z M225.06,49.04 C227.193344,51.2586778 228.814661,53.9466509 229.924,57.104 C231.033339,60.2613491 231.588,64.0159782 231.588,68.368 L231.588,102.16 C231.588,109.41337 230.052015,115.215978 226.98,119.568 C223.907985,123.920022 218.574705,126.863992 210.98,128.4 L210.98,136.208 C210.98,137.061338 210.553338,137.488 209.7,137.488 L195.108,137.488 C194.766665,137.488 194.382669,137.274669 193.956,136.848 L193.124,136.08 C192.569331,135.567997 191.993336,134.992003 191.396,134.352 C190.798664,133.711997 190.222669,133.136003 189.668,132.624 C189.113331,132.111997 188.836,131.813334 188.836,131.728 C188.665332,131.557332 188.516001,131.386668 188.388,131.216 C188.259999,131.045332 188.196,130.874668 188.196,130.704 L188.196,126.864 C184.78265,125.669327 181.966678,123.962678 179.748,121.744 C179.577332,121.658666 179.257336,121.381336 178.788,120.912 L173.86,115.984 C169.593312,111.631978 167.46,105.14671 167.46,96.528 L167.46,62.864 C167.46,53.3919526 169.977308,46.6080205 175.012,42.512 C180.046692,38.4159795 187.342619,36.368 196.9,36.368 C201.764024,36.368 206.115981,36.9439942 209.956,38.096 C213.796019,39.2480058 216.995987,41.1039872 219.556,43.664 L223.588,47.696 C224.142669,48.2506694 224.633331,48.698665 225.06,49.04 Z M209.06,67.088 C209.06,64.1866522 208.676004,61.7546765 207.908,59.792 C207.054662,59.5359987 206.244004,59.3653338 205.476,59.28 C204.707996,59.1946662 203.897338,59.152 203.044,59.152 L201.508,59.152 C197.41198,59.152 194.489342,60.3679878 192.74,62.8 C190.990658,65.2320122 190.116,68.5386458 190.116,72.72 L190.116,98.064 C190.116,100.880014 190.542662,103.269324 191.396,105.232 C192.07867,105.573335 192.825329,105.786666 193.636,105.872 C194.446671,105.957334 195.19333,106 195.876,106 L197.54,106 C201.550687,106 204.473324,104.762679 206.308,102.288 C208.142676,99.813321 209.06,96.5280205 209.06,92.432 L209.06,67.088 Z M300.452,44.432 C300.537334,44.5173338 300.878664,44.8373306 301.476,45.392 C302.073336,45.9466694 302.734663,46.5653299 303.46,47.248 C304.185337,47.9306701 304.846664,48.5919968 305.444,49.232 C306.041336,49.8720032 306.382666,50.2346662 306.468,50.32 C310.308019,54.586688 312.228,60.6026278 312.228,68.368 L312.228,102.288 C312.228,110.138706 310.073355,116.325311 305.764,120.848 C301.454645,125.370689 295.161375,127.632 286.884,127.632 L254.756,127.632 C254.414665,127.632 254.201334,127.504001 254.116,127.248 C253.945332,127.162666 253.625336,126.885336 253.156,126.416 L248.484,121.744 C248.313332,121.402665 248.228,121.104001 248.228,120.848 L248.228,38.672 C248.228,37.9039962 248.56933,37.52 249.252,37.52 L281.252,37.52 C289.785376,37.52 296.185312,39.823977 300.452,44.432 Z M289.828,66.704 C289.828,64.1439872 289.444004,62.0106752 288.676,60.304 C287.737329,59.8773312 286.734672,59.5786675 285.668,59.408 C284.601328,59.2373325 283.470673,59.152 282.276,59.152 L270.756,59.152 L270.756,106 L276.644,106 C280.484019,106 283.641321,104.848012 286.116,102.544 C288.590679,100.239988 289.828,97.0400205 289.828,92.944 L289.828,66.704 Z" id="OCQD" fill="#FF0FB8"></path>
                <path d="M39.844,36.368 C50.7667213,36.368 58.6173094,38.9279744 63.396,44.048 C67.1506854,48.1440205 69.028,54.4159578 69.028,62.864 L69.028,96.528 C69.028,105.232044 67.1506854,111.589313 63.396,115.6 C60.921321,118.160013 57.7640192,120.079994 53.924,121.36 C50.0839808,122.640006 45.3906944,123.28 39.844,123.28 C34.1266381,123.28 29.3693523,122.640006 25.572,121.36 C21.7746477,120.079994 18.638679,118.160013 16.164,115.6 C14.2866573,113.55199 12.8573382,110.970682 11.876,107.856 C10.8946618,104.741318 10.404,100.965356 10.404,96.528 L10.404,62.864 C10.404,58.5119782 10.8946618,54.8213485 11.876,51.792 C12.8573382,48.7626515 14.2866573,46.1386778 16.164,43.92 C18.638679,41.3599872 21.7959808,39.4613395 25.636,38.224 C29.4760192,36.9866605 34.2119718,36.368 39.844,36.368 Z M52.004,67.088 C52.004,64.2719859 51.6626701,61.9893421 50.98,60.24 C50.2973299,58.4906579 49.4013389,57.1040051 48.292,56.08 C47.1826611,55.0559949 45.9453402,54.373335 44.58,54.032 C43.2146598,53.690665 41.8493402,53.52 40.484,53.52 L38.948,53.52 C34.8519795,53.52 31.9293421,54.7359878 30.18,57.168 C28.4306579,59.6000122 27.556,62.9066458 27.556,67.088 L27.556,92.688 C27.556,95.5040141 27.8973299,97.807991 28.58,99.6 C29.2626701,101.392009 30.137328,102.778662 31.204,103.76 C32.270672,104.741338 33.4866598,105.423998 34.852,105.808 C36.2173402,106.192002 37.5826598,106.384 38.948,106.384 L40.484,106.384 C44.5800205,106.384 47.5026579,105.125346 49.252,102.608 C51.0013421,100.090654 51.9186662,96.7840205 52.004,92.688 L52.004,67.088 Z M18.468,95.504 C18.468,98.4906816 18.8733293,101.221321 19.684,103.696 C20.4946707,106.170679 21.795991,108.346657 23.588,110.224 C27.0013504,113.63735 31.907968,115.344 38.308,115.344 L41.636,115.344 C47.694697,115.344 52.5159821,113.573351 56.1,110.032 C59.6840179,106.490649 61.476,101.648031 61.476,95.504 L61.476,63.76 C61.476,57.1893005 59.7906835,52.1973504 56.42,48.784 C53.0493165,45.3706496 48.1213658,43.664 41.636,43.664 L38.308,43.664 C31.7373005,43.664 26.7880166,45.3706496 23.46,48.784 C20.1319834,52.1973504 18.468,57.1893005 18.468,63.76 L18.468,95.504 Z M38.308,113.68 C32.3346368,113.68 27.7693491,112.101349 24.612,108.944 C21.3693171,105.701317 19.748,101.221362 19.748,95.504 L19.748,63.76 C19.748,57.6159693 21.3266509,52.9866822 24.484,49.872 C27.6413491,46.7573178 32.249303,45.2 38.308,45.2 L41.636,45.2 C53.7533939,45.2 59.812,51.3866048 59.812,63.76 L59.812,95.504 C59.812,98.2346803 59.3853376,100.751988 58.532,103.056 C57.6786624,105.360012 56.3986752,107.365325 54.692,109.072 C52.9853248,110.522674 51.0440109,111.653329 48.868,112.464 C46.6919891,113.274671 44.2813466,113.68 41.636,113.68 L38.308,113.68 Z M131.492,88.464 C131.492,87.6959962 131.875996,87.312 132.644,87.312 L147.236,87.312 C148.004004,87.312 148.388,87.6959962 148.388,88.464 L148.388,96.528 C148.388,106.000047 145.913358,112.826646 140.964,117.008 C136.014642,121.189354 128.761381,123.28 119.204,123.28 C114.766644,123.28 110.734685,122.810671 107.108,121.872 C103.481315,120.933329 100.388013,119.418677 97.828,117.328 C95.2679872,115.237323 93.284007,112.48535 91.876,109.072 C90.467993,105.65865 89.764,101.477358 89.764,96.528 L89.764,62.864 C89.764,53.3919526 92.2813082,46.6080205 97.316,42.512 C102.350692,38.4159795 109.646619,36.368 119.204,36.368 C123.726689,36.368 127.779982,36.8373286 131.364,37.776 C134.948018,38.7146714 137.998654,40.2293229 140.516,42.32 C143.033346,44.4106771 144.97466,47.1413165 146.34,50.512 C147.70534,53.8826835 148.388,57.9999757 148.388,62.864 L148.388,65.552 C148.388,66.3200038 148.004004,66.704 147.236,66.704 L132.516,66.704 C131.747996,66.704 131.364,66.3200038 131.364,65.552 L131.364,63.504 C131.364,59.9199821 130.233345,57.3600077 127.972,55.824 C125.710655,54.2879923 123.001349,53.52 119.844,53.52 L118.308,53.52 C114.21198,53.52 111.225343,54.757321 109.348,57.232 C108.409329,58.4266726 107.769335,59.8346586 107.428,61.456 C107.086665,63.0773414 106.916,64.954656 106.916,67.088 L106.916,92.432 C106.916,95.2480141 107.278663,97.5306579 108.004,99.28 C108.729337,101.029342 109.625328,102.394662 110.692,103.376 C111.758672,104.357338 112.97466,105.039998 114.34,105.424 C115.70534,105.808002 117.027994,106 118.308,106 L119.844,106 C123.94002,106 126.862658,104.762679 128.612,102.288 C130.361342,99.813321 131.321332,96.5280205 131.492,92.432 L131.492,88.464 Z M118.948,44.304 C115.53465,44.304 112.484013,44.6453299 109.796,45.328 C107.107987,46.0106701 104.846676,47.1413254 103.012,48.72 C101.177324,50.2986746 99.7693382,52.3893203 98.788,54.992 C97.8066618,57.5946797 97.316,60.858647 97.316,64.784 L97.316,95.632 C97.316,102.714702 99.1293152,107.727985 102.756,110.672 C106.382685,113.616015 111.779964,115.088 118.948,115.088 C125.689367,115.088 130.958648,113.658681 134.756,110.8 C138.553352,107.941319 140.452,102.842703 140.452,95.504 C140.452,94.9919974 140.196003,94.736 139.684,94.736 C139.171997,94.736 138.916,94.9919974 138.916,95.504 C138.916,101.989366 137.20935,106.639986 133.796,109.456 C130.38265,112.272014 125.433366,113.68 118.948,113.68 C112.633302,113.68 107.684018,112.37868 104.1,109.776 C100.515982,107.17332 98.724,102.458701 98.724,95.632 L98.724,64.784 C98.724,58.1279667 100.345317,53.2853485 103.588,50.256 C106.830683,47.2266515 111.950632,45.712 118.948,45.712 C123.470689,45.712 126.990654,46.3093274 129.508,47.504 C132.025346,48.6986726 133.90266,50.0639923 135.14,51.6 C136.37734,53.1360077 137.123999,54.5866598 137.38,55.952 C137.636001,57.3173402 137.764,58.170665 137.764,58.512 C137.764,59.1093363 138.062664,59.4293331 138.66,59.472 C139.257336,59.5146669 139.556,59.1946701 139.556,58.512 C139.556,55.8666534 138.93734,53.6266758 137.7,51.792 C136.46266,49.9573242 134.862676,48.4853389 132.9,47.376 C130.937324,46.2666611 128.740012,45.4773357 126.308,45.008 C123.875988,44.5386643 121.422679,44.304 118.948,44.304 Z M196.9,36.368 C201.337356,36.368 205.347982,36.8373286 208.932,37.776 C212.516018,38.7146714 215.566654,40.2293229 218.084,42.32 C220.601346,44.4106771 222.54266,47.1413165 223.908,50.512 C225.27334,53.8826835 225.956,57.9999757 225.956,62.864 L225.956,96.528 C225.956,103.78137 224.420015,109.605311 221.348,114 C218.275985,118.394689 212.942705,121.317326 205.348,122.768 L205.348,130.704 C205.348,131.557338 204.921338,131.984 204.068,131.984 L189.476,131.984 C188.622662,131.984 188.196,131.557338 188.196,130.704 L188.196,122.768 C180.94263,121.40266 175.67335,118.586688 172.388,114.32 C169.10265,110.053312 167.46,104.122705 167.46,96.528 L167.46,62.864 C167.46,53.3919526 169.977308,46.6080205 175.012,42.512 C180.046692,38.4159795 187.342619,36.368 196.9,36.368 Z M209.06,67.088 C209.06,64.2719859 208.71867,61.9893421 208.036,60.24 C207.35333,58.4906579 206.457339,57.1040051 205.348,56.08 C204.238661,55.0559949 203.00134,54.373335 201.636,54.032 C200.27066,53.690665 198.90534,53.52 197.54,53.52 L195.876,53.52 C191.865313,53.52 188.964009,54.7359878 187.172,57.168 C185.379991,59.6000122 184.484,62.9066458 184.484,67.088 L184.484,92.432 C184.484,95.2480141 184.82533,97.5306579 185.508,99.28 C186.19067,101.029342 187.086661,102.394662 188.196,103.376 C189.305339,104.357338 190.54266,105.039998 191.908,105.424 C193.27334,105.808002 194.595994,106 195.876,106 L197.54,106 C201.550687,106 204.473324,104.762679 206.308,102.288 C208.142676,99.813321 209.06,96.5280205 209.06,92.432 L209.06,67.088 Z M180.388,109.968 C183.716017,113.552018 188.622634,115.344 195.108,115.344 L195.748,115.344 L195.748,123.664 C195.748,124.090669 195.961331,124.325333 196.388,124.368 C196.814669,124.410667 197.028,124.176003 197.028,123.664 L197.028,115.344 L198.308,115.344 C204.452031,115.344 209.315982,113.573351 212.9,110.032 C216.484018,106.490649 218.276,101.648031 218.276,95.504 L218.276,63.76 C218.276,57.1893005 216.590684,52.1973504 213.22,48.784 C209.849316,45.3706496 204.8787,43.664 198.308,43.664 L195.108,43.664 C188.451967,43.664 183.460017,45.3706496 180.132,48.784 C176.803983,52.1973504 175.14,57.1893005 175.14,63.76 L175.14,95.504 C175.14,101.733364 176.889316,106.55465 180.388,109.968 Z M195.108,113.68 C192.121318,113.68 189.476012,113.296004 187.172,112.528 C184.867988,111.759996 182.990674,110.565341 181.54,108.944 C178.211983,105.615983 176.548,101.136028 176.548,95.504 L176.548,63.76 C176.548,57.6159693 178.126651,52.9866822 181.284,49.872 C184.441349,46.7573178 189.049303,45.2 195.108,45.2 L198.308,45.2 C210.596061,45.2 216.74,51.3866048 216.74,63.76 L216.74,95.504 C216.74,98.2346803 216.313338,100.751988 215.46,103.056 C214.606662,105.360012 213.326675,107.365325 211.62,109.072 C209.913325,110.522674 207.929345,111.653329 205.668,112.464 C203.406655,113.274671 200.953347,113.68 198.308,113.68 L195.108,113.68 Z M281.252,37.52 C289.956044,37.52 296.483978,39.9093094 300.836,44.688 C304.676019,48.954688 306.596,55.0132941 306.596,62.864 L306.596,96.784 C306.596,104.549372 304.441355,110.693311 300.132,115.216 C295.822645,119.738689 289.529375,122 281.252,122 L249.252,122 C248.56933,122 248.228,121.616004 248.228,120.848 L248.228,38.672 C248.228,37.9039962 248.56933,37.52 249.252,37.52 L281.252,37.52 Z M289.828,66.704 C289.828,62.6079795 288.761344,59.3866784 286.628,57.04 C284.494656,54.6933216 281.166689,53.52 276.644,53.52 L265.124,53.52 L265.124,106 L276.644,106 C280.484019,106 283.641321,104.848012 286.116,102.544 C288.590679,100.239988 289.828,97.0400205 289.828,92.944 L289.828,66.704 Z M256.036,114.192 C256.036,114.448001 256.121332,114.618666 256.292,114.704 C256.462668,114.789334 256.633332,114.832 256.804,114.832 L277.668,114.832 C281.337352,114.832 284.515987,114.320005 287.204,113.296 C289.892013,112.271995 292.110658,110.970675 293.86,109.392 C295.609342,107.813325 296.910662,106.00001 297.764,103.952 C298.617338,101.90399 299.044,99.8560102 299.044,97.808 L299.044,65.04 C299.044,51.3865984 291.790739,44.56 277.284,44.56 L256.804,44.56 C256.633332,44.56 256.462668,44.6026662 256.292,44.688 C256.121332,44.7733338 256.036,44.986665 256.036,45.328 L256.036,114.192 Z M297.508,97.808 C297.508,100.368013 296.932006,102.629324 295.78,104.592 C294.627994,106.554676 293.113343,108.175994 291.236,109.456 C289.358657,110.736006 287.225345,111.71733 284.836,112.4 C282.446655,113.08267 280.057345,113.424 277.668,113.424 L257.572,113.424 L257.572,46.224 L277.284,46.224 C284.025367,46.224 289.081316,47.7599846 292.452,50.832 C295.822684,53.9040154 297.508,58.639968 297.508,65.04 L297.508,97.808 Z" id="OCQD" fill="#F9BA84"></path>
            </g>
        </g>
    </g>
</svg>