<?xml version="1.0" encoding="UTF-8"?>
<svg width="74px" height="74px" viewBox="0 0 74 74" version="1.1" xmlns="http://www.w3.org/2000/svg" xmlns:xlink="http://www.w3.org/1999/xlink">
    <!-- Generator: Sketch 45.1 (43504) - http://www.bohemiancoding.com/sketch -->
    <title></title>
    <desc>Created with Sketch.</desc>
    <defs></defs>
    <g id="Page-1" stroke="none" stroke-width="1" fill="none" fill-rule="evenodd">
        <g id="ocqd-6" transform="translate(-234.000000, -105.000000)" fill="#FFFFFF">
            <path d="M262.642857,140.34375 L271,138 L262.642857,135.65625 L258,123 L253.357143,135.65625 L245,138 L253.357143,140.34375 L258,153 L262.642857,140.34375 Z M299.410714,117.1875 L295,105 L290.589286,117.1875 L282,120 L290.589286,122.8125 L295,135 L299.410714,122.8125 L308,120 L299.410714,117.1875 Z M292.410714,161.1875 L301,164 L292.410714,166.8125 L288,179 L283.589286,166.8125 L275,164 L283.589286,161.1875 L288,149 L292.410714,161.1875 Z M265.153846,132.428571 L282,138 L265.153846,143.571429 L258,164 L250.846154,143.571429 L234,138 L250.846154,132.428571 L258,112 L265.153846,132.428571 Z" id=""></path>
        </g>
    </g>
</svg>